<?xml version="1.0" encoding="UTF-8"?>
<!DOCTYPE svg PUBLIC "-//W3C//DTD SVG 1.1//EN" "http://www.w3.org/Graphics/SVG/1.1/DTD/svg11.dtd">
<svg xmlns="http://www.w3.org/2000/svg" version="1.1" width="73px" height="50px" style="shape-rendering:geometricPrecision; text-rendering:geometricPrecision; image-rendering:optimizeQuality; fill-rule:evenodd; clip-rule:evenodd" xmlns:xlink="http://www.w3.org/1999/xlink">
<g><path style="opacity:1" fill="#2c9b9a" d="M 26.5,0.5 C 29.3408,0.55975 32.0075,1.22642 34.5,2.5C 34.4226,3.74975 33.756,4.58309 32.5,5C 33.9842,6.57365 35.6508,7.90698 37.5,9C 36.1667,10 36.1667,11 37.5,12C 36.8742,12.7504 36.3742,13.5838 36,14.5C 35.5831,13.244 34.7498,12.5774 33.5,12.5C 30.5344,10.3031 27.201,8.96982 23.5,8.5C 21.9605,6.16175 21.2938,3.49508 21.5,0.5C 23.1667,0.5 24.8333,0.5 26.5,0.5 Z"/></g>
<g><path style="opacity:1" fill="#4ca3a3" d="M 20.5,-0.5 C 22.5,-0.5 24.5,-0.5 26.5,-0.5C 26.5,-0.166667 26.5,0.166667 26.5,0.5C 24.8333,0.5 23.1667,0.5 21.5,0.5C 21.2938,3.49508 21.9605,6.16175 23.5,8.5C 20.0292,9.2263 16.6959,10.5596 13.5,12.5C 11.6991,10.1149 10.0324,7.78152 8.5,5.5C 11.9991,2.41707 15.9991,0.417073 20.5,-0.5 Z"/></g>
<g><path style="opacity:1" fill="#4caaa6" d="M 34.5,2.5 C 38.8333,4.16667 41.8333,7.16667 43.5,11.5C 42.1765,10.1501 41.1765,10.3167 40.5,12C 39.5938,14.7906 38.9272,17.6239 38.5,20.5C 36.8474,17.8695 35.1807,15.2028 33.5,12.5C 34.7498,12.5774 35.5831,13.244 36,14.5C 36.3742,13.5838 36.8742,12.7504 37.5,12C 36.1667,11 36.1667,10 37.5,9C 35.6508,7.90698 33.9842,6.57365 32.5,5C 33.756,4.58309 34.4226,3.74975 34.5,2.5 Z"/></g>
<g><path style="opacity:1" fill="#3e778e" d="M 51.5,22.5 C 50.8333,22.8333 50.1667,23.1667 49.5,23.5C 48.4031,20.3135 47.0697,17.3135 45.5,14.5C 45.8333,13.8333 46.1667,13.1667 46.5,12.5C 48.6476,6.1666 52.9809,3.33326 59.5,4C 61.3959,5.80832 61.8959,7.97498 61,10.5C 56.621,13.618 53.4543,17.618 51.5,22.5 Z"/></g>
<g><path style="opacity:1" fill="#3c989b" d="M 8.5,5.5 C 10.0324,7.78152 11.6991,10.1149 13.5,12.5C 12.396,14.3885 11.0627,16.0552 9.5,17.5C 7.10984,15.9802 4.44317,14.9802 1.5,14.5C 2.72521,10.6116 5.05854,7.61155 8.5,5.5 Z"/></g>
<g><path style="opacity:1" fill="#3aa69f" d="M 43.5,11.5 C 44.391,12.1098 45.391,12.4431 46.5,12.5C 46.1667,13.1667 45.8333,13.8333 45.5,14.5C 44.2633,16.2034 44.2633,18.0367 45.5,20C 44.2475,22.6327 42.9142,25.1327 41.5,27.5C 40.8333,27.5 40.1667,27.5 39.5,27.5C 39.4142,26.5041 39.7476,25.6708 40.5,25C 39.4178,23.6703 38.7512,22.1703 38.5,20.5C 38.9272,17.6239 39.5938,14.7906 40.5,12C 41.1765,10.3167 42.1765,10.1501 43.5,11.5 Z"/></g>
<g><path style="opacity:1" fill="#1ba599" d="M 45.5,14.5 C 47.0697,17.3135 48.4031,20.3135 49.5,23.5C 47.8002,27.2646 46.4668,31.2646 45.5,35.5C 43.659,33.1515 42.3257,30.4848 41.5,27.5C 42.9142,25.1327 44.2475,22.6327 45.5,20C 44.2633,18.0367 44.2633,16.2034 45.5,14.5 Z"/></g>
<g><path style="opacity:1" fill="#2b8e94" d="M 1.5,14.5 C 4.44317,14.9802 7.10984,15.9802 9.5,17.5C 9.73731,18.791 9.40397,19.791 8.5,20.5C 8.38215,26.7293 5.38215,28.7293 -0.5,26.5C -0.5,23.1667 -0.5,19.8333 -0.5,16.5C 0.166667,15.8333 0.833333,15.1667 1.5,14.5 Z"/></g>
<g><path style="opacity:1" fill="#3c929a" d="M 8.5,20.5 C 8.3316,24.6575 8.99827,28.6575 10.5,32.5C 9.26506,34.017 9.26506,35.6837 10.5,37.5C 9.73659,38.7193 8.73659,39.7193 7.5,40.5C 8.12723,41.4168 8.46056,42.4168 8.5,43.5C 4.7018,40.0438 1.7018,36.0438 -0.5,31.5C -0.5,29.8333 -0.5,28.1667 -0.5,26.5C 5.38215,28.7293 8.38215,26.7293 8.5,20.5 Z"/></g>
<g><path style="opacity:1" fill="#33b0a2" d="M 51.5,22.5 C 51.4431,23.609 51.1098,24.609 50.5,25.5C 50.3305,27.912 50.9972,30.0786 52.5,32C 51.2609,34.2131 51.5943,36.2131 53.5,38C 52.9293,39.5991 51.9293,40.7658 50.5,41.5C 48.7541,39.7484 46.7541,38.4151 44.5,37.5C 44.8333,36.8333 45.1667,36.1667 45.5,35.5C 46.4668,31.2646 47.8002,27.2646 49.5,23.5C 50.1667,23.1667 50.8333,22.8333 51.5,22.5 Z"/></g>
<g><path style="opacity:1" fill="#3b8494" d="M 39.5,27.5 C 40.1667,27.5 40.8333,27.5 41.5,27.5C 42.3257,30.4848 43.659,33.1515 45.5,35.5C 45.1667,36.1667 44.8333,36.8333 44.5,37.5C 42.8333,41.1667 40.1667,43.8333 36.5,45.5C 36.769,42.4745 35.9357,39.8078 34,37.5C 33.3292,38.2524 32.4959,38.5858 31.5,38.5C 34.8884,35.4029 37.5551,31.7363 39.5,27.5 Z"/></g>
<g><path style="opacity:1" fill="#47bbab" d="M 50.5,25.5 C 52.6889,31.691 56.6889,36.3577 62.5,39.5C 61.0695,39.5792 59.7362,39.2458 58.5,38.5C 57.52,41.0865 57.1866,43.7531 57.5,46.5C 54.3257,45.9898 51.9923,44.3231 50.5,41.5C 51.9293,40.7658 52.9293,39.5991 53.5,38C 51.5943,36.2131 51.2609,34.2131 52.5,32C 50.9972,30.0786 50.3305,27.912 50.5,25.5 Z"/></g>
<g><path style="opacity:0.827" fill="#a3cccf" d="M 10.5,32.5 C 12.1667,33.5 13.5,34.8333 14.5,36.5C 12.1667,36.1667 10.8333,34.8333 10.5,32.5 Z"/></g>
<g><path style="opacity:1" fill="#277f8f" d="M 36.5,45.5 C 33.0732,47.5666 29.4065,48.8999 25.5,49.5C 24.8333,49.5 24.1667,49.5 23.5,49.5C 22.791,48.596 21.791,48.2627 20.5,48.5C 20.3367,46.1432 20.5034,43.8098 21,41.5C 23.6073,40.8767 26.1073,40.21 28.5,39.5C 29.391,38.8902 30.391,38.5569 31.5,38.5C 32.4959,38.5858 33.3292,38.2524 34,37.5C 35.9357,39.8078 36.769,42.4745 36.5,45.5 Z"/></g>
<g><path style="opacity:1" fill="#3bbca9" d="M 62.5,39.5 C 66.0847,39.1524 69.418,39.819 72.5,41.5C 72.5,43.5 72.5,45.5 72.5,47.5C 71.2905,47.9321 70.2905,48.5987 69.5,49.5C 68.8333,49.5 68.1667,49.5 67.5,49.5C 64.0214,48.9819 60.6881,47.9819 57.5,46.5C 57.1866,43.7531 57.52,41.0865 58.5,38.5C 59.7362,39.2458 61.0695,39.5792 62.5,39.5 Z"/></g>
<g><path style="opacity:1" fill="#388a96" d="M 10.5,32.5 C 10.8333,34.8333 12.1667,36.1667 14.5,36.5C 18.7332,39.0902 23.3998,40.0902 28.5,39.5C 26.1073,40.21 23.6073,40.8767 21,41.5C 20.5034,43.8098 20.3367,46.1432 20.5,48.5C 15.9694,47.9931 11.9694,46.3264 8.5,43.5C 8.46056,42.4168 8.12723,41.4168 7.5,40.5C 8.73659,39.7193 9.73659,38.7193 10.5,37.5C 9.26506,35.6837 9.26506,34.017 10.5,32.5 Z"/></g>
</svg>
